<?xml version="1.0" standalone="no"?>
<!DOCTYPE svg PUBLIC "-//W3C//DTD SVG 20010904//EN"
 "http://www.w3.org/TR/2001/REC-SVG-20010904/DTD/svg10.dtd">
<svg version="1.0" xmlns="http://www.w3.org/2000/svg"
 width="972.000000pt" height="428.000000pt" viewBox="0 0 972.000000 428.000000"
 preserveAspectRatio="xMidYMid meet">
<metadata>
Created by potrace 1.16, written by Peter Selinger 2001-2019
</metadata>
<g transform="translate(0.000000,428.000000) scale(0.100000,-0.100000)"
fill="#000000" stroke="none">
<path d="M0 2140 l0 -2140 4860 0 4860 0 0 2140 0 2140 -4860 0 -4860 0 0
-2140z m1321 623 c12 -13 14 -120 14 -600 l0 -585 -24 -19 c-32 -26 -56 -24
-80 7 -21 26 -21 35 -21 598 0 636 -2 616 64 616 19 0 40 -7 47 -17z m175
-127 c18 -14 19 -32 22 -467 2 -412 1 -453 -14 -470 -24 -26 -69 -24 -88 3
-14 20 -16 80 -16 463 0 383 2 443 16 463 17 25 51 29 80 8z m169 -122 c41
-16 45 -50 45 -353 0 -200 -4 -298 -12 -316 -15 -33 -51 -42 -83 -21 l-25 16
0 322 c0 285 2 323 17 340 17 19 31 22 58 12z m211 -155 c17 -19 19 -38 19
-194 0 -156 -2 -175 -19 -194 -25 -27 -60 -27 -86 2 -20 21 -21 31 -18 198 3
191 8 209 58 209 15 0 35 -9 46 -21z m1666 -113 c73 -43 92 -87 96 -236 5
-155 -5 -198 -61 -254 -51 -50 -100 -66 -183 -61 -101 7 -156 44 -192 128 -7
17 -12 80 -12 165 0 157 13 201 72 245 70 54 201 60 280 13z m691 10 c43 -21
87 -79 87 -114 0 -15 -8 -26 -26 -32 -42 -16 -58 -11 -81 25 -30 46 -80 60
-148 42 -71 -18 -85 -50 -84 -182 0 -125 13 -164 59 -188 44 -23 121 -18 158
10 30 22 45 93 20 93 -44 2 -110 10 -119 15 -18 11 -10 74 10 85 25 13 191 13
211 0 11 -7 15 -29 15 -94 -1 -78 -3 -89 -30 -128 -42 -60 -105 -90 -192 -91
-92 -1 -135 15 -182 69 -35 40 -40 53 -47 111 -4 37 -4 113 -1 170 4 90 8 109
31 143 46 70 96 90 211 87 43 -2 84 -10 108 -21z m689 -10 c27 -15 54 -42 69
-68 22 -40 24 -52 24 -193 0 -140 -2 -153 -23 -188 -32 -51 -77 -82 -139 -97
-100 -23 -203 10 -250 82 -27 40 -28 47 -31 189 -4 171 8 215 72 264 69 52
199 58 278 11z m1634 21 c50 -21 83 -48 106 -84 21 -35 21 -36 3 -49 -25 -19
-31 -18 -52 9 -44 54 -83 77 -131 77 -105 0 -152 -32 -152 -101 0 -60 21 -74
150 -99 130 -25 170 -45 195 -96 43 -90 -18 -201 -123 -223 -126 -26 -200 -7
-266 71 -39 45 -42 64 -14 82 15 9 26 2 65 -41 54 -57 94 -70 178 -57 62 9 95
38 102 90 4 33 1 45 -18 67 -20 22 -40 29 -118 42 -169 29 -215 63 -215 161 0
82 47 139 129 157 43 10 134 6 161 -6z m-3829 -9 c4 -7 10 -112 13 -233 l5
-220 109 -3 c61 -1 116 -8 123 -14 16 -13 17 -60 1 -76 -8 -8 -60 -12 -168
-12 -108 0 -160 4 -168 12 -16 16 -17 510 -2 539 12 22 74 27 87 7z m2611
-271 c2 -241 0 -278 -13 -283 -8 -4 -22 -1 -30 6 -13 10 -15 54 -15 270 0 142
3 266 6 275 4 9 15 15 28 13 21 -3 21 -6 24 -281z m561 273 c44 -12 107 -74
122 -118 19 -58 3 -118 -44 -166 -51 -51 -99 -66 -206 -66 l-81 0 0 -88 c0
-94 -13 -131 -44 -119 -14 6 -16 36 -16 287 l0 280 118 0 c64 0 133 -4 151
-10z m1092 -200 c3 -113 6 -206 7 -208 1 -1 21 -23 43 -47 39 -43 44 -45 96
-45 61 0 95 16 133 63 24 30 25 36 28 217 3 221 5 232 35 228 22 -3 22 -5 25
-201 3 -228 -4 -265 -57 -318 -77 -77 -245 -76 -318 3 -45 47 -53 96 -53 308
0 108 3 200 7 204 4 4 16 6 28 4 19 -3 20 -11 26 -208z m706 188 c11 -13 36
-50 55 -83 69 -118 115 -200 121 -217 10 -28 35 -21 53 15 25 48 113 206 147
260 33 54 62 62 77 21 11 -27 14 -474 4 -511 -8 -30 -35 -38 -52 -16 -11 14
-13 61 -10 216 2 114 -1 196 -6 194 -5 -2 -32 -44 -60 -94 -120 -216 -120
-215 -155 -185 -21 17 -77 112 -138 232 -18 36 -33 61 -34 55 0 -5 -2 -101 -2
-213 -2 -162 -5 -204 -16 -211 -20 -13 -38 -3 -45 22 -10 39 -7 497 4 518 14
25 32 24 57 -3z m-5637 -8 c15 -15 20 -33 20 -75 0 -61 -22 -95 -62 -95 -34 0
-45 11 -58 58 -25 94 42 170 100 112z m1 -229 c24 -19 24 -22 24 -196 0 -174
0 -177 -24 -196 -28 -23 -50 -24 -77 -5 -17 13 -19 30 -22 188 -3 165 -2 175
18 201 25 32 49 34 81 8z m-167 -116 c3 -11 6 -102 6 -203 0 -182 0 -183 -25
-208 -34 -34 -65 -28 -87 16 -15 29 -18 64 -18 212 0 97 3 183 6 191 4 11 20
15 59 14 45 -1 55 -4 59 -22z m342 7 c38 -25 47 -129 14 -162 -24 -24 -57 -26
-82 -3 -22 19 -26 120 -5 145 19 24 53 34 73 20z m-528 -320 c3 -224 -4 -252
-61 -252 -18 0 -38 5 -45 12 -9 9 -12 73 -12 225 l0 214 58 -3 57 -3 3 -193z
m-190 52 c11 -3 13 -44 10 -203 -3 -181 -5 -201 -22 -220 -27 -30 -76 -25 -93
9 -13 26 -19 410 -7 423 6 6 84 0 112 -9z"/>
<path d="M3336 2159 c-37 -29 -48 -81 -44 -196 2 -84 7 -106 24 -130 39 -52
153 -54 200 -2 17 19 19 37 19 155 0 132 0 134 -27 161 -37 37 -132 43 -172
12z"/>
<path d="M4709 2152 l-34 -30 -3 -124 c-3 -115 -2 -125 20 -158 28 -42 89 -59
148 -41 69 20 75 36 75 187 0 132 0 134 -27 161 -22 21 -39 27 -86 31 -55 4
-62 2 -93 -26z"/>
<path d="M5684 2197 c-2 -7 -3 -58 -2 -113 l3 -99 92 -3 c105 -3 143 10 168
58 29 56 15 111 -39 148 -28 19 -45 22 -124 22 -68 0 -94 -4 -98 -13z"/>
</g>
</svg>
