<?xml version="1.0" standalone="no"?>
<!DOCTYPE svg PUBLIC "-//W3C//DTD SVG 20010904//EN"
 "http://www.w3.org/TR/2001/REC-SVG-20010904/DTD/svg10.dtd">
<svg version="1.0" xmlns="http://www.w3.org/2000/svg"
 width="828.000000pt" height="412.000000pt" viewBox="0 0 828.000000 412.000000"
 preserveAspectRatio="xMidYMid meet">
<metadata>
Created by potrace 1.16, written by Peter Selinger 2001-2019
</metadata>
<g transform="translate(0.000000,412.000000) scale(0.100000,-0.100000)"
fill="#000000" stroke="none">
<path d="M0 2060 l0 -2060 4140 0 4140 0 0 2060 0 2060 -4140 0 -4140 0 0
-2060z m2688 40 c1 -316 0 -585 -3 -598 l-5 -22 -598 2 -597 3 -3 585 c-1 322
0 591 3 598 3 10 129 12 602 10 l598 -3 3 -575z m882 570 c108 -17 232 -83
318 -170 122 -122 174 -249 175 -425 0 -99 -3 -118 -31 -192 -46 -121 -106
-203 -202 -278 -96 -74 -196 -113 -315 -122 -161 -12 -342 48 -454 152 -72 67
-144 179 -172 268 -27 86 -32 243 -10 322 29 103 90 206 165 280 143 141 320
197 526 165z m1451 -20 c146 -45 277 -156 346 -292 56 -112 63 -138 70 -245
11 -176 -52 -338 -180 -460 -246 -234 -616 -227 -849 15 -111 114 -168 256
-168 414 0 274 180 505 452 579 90 24 232 19 329 -11z m1285 20 c237 -38 422
-203 490 -435 24 -83 24 -242 0 -315 -91 -277 -339 -453 -612 -436 -164 11
-282 63 -394 175 -119 120 -175 252 -174 416 1 170 56 305 173 423 136 139
328 203 517 172z"/>
<path d="M1733 2444 c-10 -4 -13 -87 -13 -364 0 -317 2 -359 16 -364 9 -3 168
-6 354 -6 276 0 340 3 349 14 8 9 11 51 9 122 l-3 109 -230 3 c-140 1 -233 6
-240 13 -6 6 -12 103 -15 242 l-5 232 -105 2 c-58 1 -111 -1 -117 -3z"/>
<path d="M2211 2436 c-8 -9 -11 -51 -9 -122 l3 -109 120 0 120 0 3 109 c2 71
-1 113 -9 122 -8 10 -38 14 -114 14 -76 0 -106 -4 -114 -14z"/>
<path d="M3360 2429 c-14 -6 -41 -18 -60 -26 -86 -37 -144 -105 -180 -212 -56
-169 19 -352 177 -432 64 -32 74 -34 168 -34 81 0 109 4 147 22 58 26 128 90
167 151 84 134 55 331 -65 442 -76 71 -132 94 -239 97 -50 2 -101 -2 -115 -8z"/>
<path d="M4740 2431 c-101 -33 -194 -111 -231 -196 -31 -69 -38 -194 -14 -268
20 -64 74 -139 132 -183 126 -96 337 -81 462 32 42 38 96 126 84 138 -4 3 -77
6 -164 6 -109 0 -160 4 -165 12 -11 18 -14 176 -4 203 l10 25 159 0 c100 0
162 4 166 10 4 6 -7 32 -24 58 -72 113 -166 165 -301 169 -47 1 -96 -1 -110
-6z"/>
<path d="M6110 2427 c-19 -8 -48 -19 -63 -26 -50 -20 -133 -108 -161 -171 -67
-148 -35 -300 85 -417 63 -61 127 -86 229 -91 98 -5 162 14 233 69 98 75 140
162 141 290 0 78 -3 93 -32 152 -37 75 -110 147 -182 179 -57 27 -199 35 -250
15z"/>
</g>
</svg>
