<?xml version="1.0" standalone="no"?>
<!DOCTYPE svg PUBLIC "-//W3C//DTD SVG 20010904//EN"
 "http://www.w3.org/TR/2001/REC-SVG-20010904/DTD/svg10.dtd">
<svg version="1.0" xmlns="http://www.w3.org/2000/svg"
 width="526.000000pt" height="480.000000pt" viewBox="0 0 526.000000 480.000000"
 preserveAspectRatio="xMidYMid meet">
<metadata>
Created by potrace 1.16, written by Peter Selinger 2001-2019
</metadata>
<g transform="translate(0.000000,480.000000) scale(0.100000,-0.100000)"
fill="#000000" stroke="none">
<path d="M0 2400 l0 -2400 2630 0 2630 0 0 2400 0 2400 -2630 0 -2630 0 0
-2400z m3400 938 c189 -52 334 -135 470 -269 200 -197 296 -417 307 -699 7
-191 -22 -330 -102 -491 -130 -258 -341 -440 -618 -532 -120 -41 -215 -49
-523 -45 l-279 3 -54 29 c-30 15 -92 64 -138 108 -106 102 -129 111 -273 114
-157 4 -232 12 -310 33 -79 22 -203 83 -248 122 -18 16 -37 29 -42 29 -17 0
-139 151 -174 216 -75 136 -111 310 -94 453 9 80 45 220 62 241 7 8 23 38 36
65 13 28 43 70 65 95 23 25 46 52 51 60 21 35 125 110 209 152 170 86 143 83
880 83 l650 0 75 -24 c81 -25 200 -84 267 -132 108 -76 212 -224 264 -375 29
-82 32 -100 33 -229 1 -120 -2 -152 -22 -220 -73 -248 -255 -439 -502 -527
-89 -32 -210 -43 -411 -38 -177 5 -186 6 -239 33 -30 16 -89 61 -130 102 -115
112 -123 115 -320 115 -234 0 -316 12 -417 60 -185 87 -293 259 -293 465 0
141 48 257 147 358 67 68 132 107 224 137 65 20 77 21 685 18 612 -3 620 -3
678 -25 202 -77 329 -247 343 -461 10 -150 -35 -270 -144 -383 -66 -69 -137
-113 -233 -145 -41 -14 -85 -19 -175 -19 -115 0 -123 1 -189 33 -46 21 -93 56
-145 105 -125 120 -91 111 -436 117 l-300 5 -50 27 c-96 51 -145 128 -145 231
0 109 55 192 160 241 44 21 58 21 620 21 567 0 576 0 622 -22 61 -28 123 -93
142 -150 60 -174 -51 -334 -242 -350 -94 -8 -138 7 -196 66 -27 27 -45 54 -42
60 5 7 54 11 139 11 114 0 136 3 161 19 39 26 55 57 56 109 0 35 -6 49 -34 80
l-34 37 -572 0 -572 0 -34 -39 c-40 -47 -46 -103 -15 -150 36 -54 45 -55 326
-56 352 0 383 -8 520 -140 113 -109 129 -115 270 -115 116 0 123 1 189 34 38
18 86 51 107 72 124 124 145 336 48 483 -34 51 -107 115 -159 138 -82 37 -130
40 -715 36 -595 -4 -585 -4 -665 -47 -83 -45 -160 -142 -188 -237 -17 -58 -15
-162 5 -220 33 -99 107 -181 209 -230 58 -28 61 -28 299 -34 235 -6 241 -6
300 -33 39 -18 86 -53 135 -101 126 -123 121 -121 355 -121 229 0 269 7 395
68 117 57 218 153 271 259 63 125 71 154 76 283 5 105 2 130 -17 195 -68 230
-225 387 -455 457 -55 17 -108 18 -685 18 -624 0 -625 0 -695 -23 -124 -40
-191 -80 -275 -164 -43 -42 -92 -101 -108 -130 -110 -192 -116 -442 -14 -626
81 -147 200 -246 372 -308 68 -24 93 -27 265 -34 180 -6 193 -8 245 -34 30
-15 89 -60 130 -100 126 -123 120 -120 365 -125 348 -6 497 21 684 123 76 41
114 71 193 149 109 110 164 200 220 362 27 80 31 106 35 235 4 114 1 159 -12
210 -9 36 -21 82 -26 103 -12 50 -84 192 -122 242 -69 91 -199 211 -272 251
-11 6 -40 22 -65 36 -59 33 -213 75 -320 88 -108 13 -1027 13 -1185 0 -205
-17 -358 -79 -516 -208 -173 -142 -293 -365 -319 -595 -27 -239 47 -480 204
-668 183 -219 434 -328 756 -329 100 0 136 -12 187 -62 73 -71 74 -71 -194
-66 -205 4 -249 8 -318 27 -93 25 -289 117 -349 163 -259 200 -405 461 -425
757 -15 229 26 408 142 618 44 78 163 212 247 279 70 55 216 135 299 164 169
59 177 59 896 57 l660 -3 95 -26z m760 12 c11 -11 20 -31 20 -45 0 -42 -33
-65 -94 -65 -87 0 -131 56 -82 105 33 33 125 36 156 5z"/>
</g>
</svg>
