<?xml version="1.0" standalone="no"?>
<!DOCTYPE svg PUBLIC "-//W3C//DTD SVG 20010904//EN"
 "http://www.w3.org/TR/2001/REC-SVG-20010904/DTD/svg10.dtd">
<svg version="1.0" xmlns="http://www.w3.org/2000/svg"
 width="1010.000000pt" height="360.000000pt" viewBox="0 0 1010.000000 360.000000"
 preserveAspectRatio="xMidYMid meet">
<metadata>
Created by potrace 1.16, written by Peter Selinger 2001-2019
</metadata>
<g transform="translate(0.000000,360.000000) scale(0.100000,-0.100000)"
fill="#000000" stroke="none">
<path d="M0 1800 l0 -1800 5050 0 5050 0 0 1800 0 1800 -5050 0 -5050 0 0
-1800z m2275 300 c139 -23 245 -92 297 -193 27 -53 32 -75 36 -155 4 -78 1
-102 -18 -155 -32 -86 -87 -148 -168 -188 -89 -44 -165 -58 -302 -58 -295 -1
-457 97 -499 301 -23 111 7 234 80 321 33 40 133 96 209 118 96 26 239 30 365
9z m2044 4 c210 -21 344 -143 365 -332 21 -192 -78 -336 -273 -399 -72 -23
-300 -28 -389 -9 -174 37 -280 120 -319 249 -23 79 -14 217 20 282 50 99 169
180 302 204 110 20 142 21 294 5z m715 6 l26 -10 0 -374 c0 -332 -2 -375 -16
-380 -30 -12 -249 -7 -262 6 -9 9 -12 107 -12 380 l0 369 23 9 c30 12 209 12
241 0z m841 -5 c91 -24 145 -61 180 -125 27 -50 30 -63 29 -145 0 -73 -5 -98
-23 -135 -34 -65 -67 -97 -130 -122 -49 -19 -80 -22 -259 -26 -233 -5 -210 9
-214 -127 l-3 -80 -125 -3 c-69 -1 -131 2 -138 7 -11 7 -14 77 -13 367 0 198
1 365 1 372 0 26 52 31 340 31 235 1 308 -2 355 -14z m950 -15 c69 -27 121
-57 152 -91 27 -29 72 -129 66 -146 -3 -9 -34 -13 -101 -14 -53 -1 -108 -5
-122 -9 l-25 -8 25 -1 c31 -1 124 -36 167 -62 101 -63 110 -237 15 -320 -94
-83 -302 -123 -512 -99 -156 18 -246 54 -314 126 -31 34 -65 129 -50 144 5 5
69 10 142 11 l133 2 32 -30 c47 -44 93 -56 208 -51 76 3 103 8 116 21 30 30 0
45 -117 58 -288 30 -376 49 -438 96 -54 41 -72 79 -72 155 0 60 3 71 33 110
22 29 54 54 99 76 103 51 170 62 348 58 131 -3 164 -7 215 -26z m570 22 l30
-8 5 -236 c5 -231 6 -237 28 -261 45 -47 196 -64 262 -29 64 34 70 60 70 297
0 116 5 217 10 225 14 22 256 21 271 0 16 -24 5 -506 -13 -551 -57 -150 -282
-236 -539 -208 -189 21 -296 82 -348 199 -19 41 -21 65 -21 303 l0 258 23 8
c29 11 184 13 222 3z m1130 2 c20 -5 30 -25 137 -269 48 -112 51 -116 63 -118
10 -1 58 89 145 275 l50 107 45 7 c79 11 285 0 296 -17 14 -23 12 -732 -3
-747 -18 -18 -242 -17 -256 1 -7 8 -13 71 -14 153 l-3 139 -28 -53 c-15 -29
-46 -94 -68 -145 -21 -50 -45 -94 -52 -99 -6 -4 -57 -8 -113 -8 -84 0 -103 3
-116 18 -15 16 -73 142 -107 230 -8 23 -22 42 -28 42 -10 0 -13 -34 -13 -140
0 -165 13 -152 -155 -148 l-110 3 -3 378 -2 378 22 9 c25 9 280 13 313 4z
m-5200 -18 c147 -31 248 -112 270 -215 5 -24 3 -36 -6 -42 -8 -5 -60 -9 -116
-9 -101 0 -101 0 -143 35 -52 44 -74 50 -180 50 -72 0 -92 -4 -130 -25 -60
-33 -80 -75 -80 -165 0 -93 20 -131 85 -165 42 -21 63 -25 140 -25 74 0 99 5
138 24 53 26 78 58 56 72 -8 5 -61 9 -119 9 -69 0 -110 4 -118 12 -14 14 -16
87 -2 122 l10 26 234 0 c222 0 236 -1 246 -19 11 -21 14 -378 4 -405 -5 -13
-24 -16 -100 -16 -91 0 -95 1 -106 25 -11 25 -41 34 -53 15 -15 -24 -138 -50
-239 -50 -121 1 -192 16 -277 61 -119 63 -181 198 -165 357 9 82 53 178 101
221 62 54 177 103 270 114 72 9 225 5 280 -7z m-2188 -8 c4 -7 10 -128 13
-268 l5 -255 220 -5 220 -5 0 -95 0 -95 -350 0 -350 0 -3 355 c-1 195 0 361 3
367 6 18 230 18 242 1z"/>
<path d="M2010 1906 c-54 -15 -97 -41 -111 -68 -6 -11 -13 -53 -16 -94 -9
-115 4 -112 149 33 70 70 118 125 114 132 -9 14 -79 13 -136 -3z"/>
<path d="M2195 1680 c-140 -141 -142 -151 -19 -133 112 16 160 58 170 150 7
59 -1 103 -19 103 -7 0 -66 -54 -132 -120z"/>
<path d="M4083 1906 c-61 -19 -99 -50 -117 -96 -24 -59 -19 -150 8 -150 16 0
258 245 250 253 -12 11 -95 7 -141 -7z"/>
<path d="M4271 1686 c-81 -81 -121 -128 -116 -136 13 -21 128 -5 184 26 50 27
73 62 85 130 5 33 -10 104 -22 104 -4 0 -63 -56 -131 -124z"/>
<path d="M4812 2072 c-9 -7 -12 -83 -10 -348 l3 -339 110 0 110 0 3 339 c2
265 -1 341 -10 348 -7 4 -53 8 -103 8 -49 0 -96 -4 -103 -8z"/>
<path d="M5222 2068 c-14 -14 -17 -654 -4 -676 6 -9 35 -12 108 -10 l99 3 5
95 5 95 205 6 c231 7 282 17 339 65 105 90 101 308 -8 379 -78 52 -101 55
-430 55 -226 0 -310 -3 -319 -12z m575 -164 c29 -22 33 -30 33 -73 0 -58 -13
-76 -69 -96 -44 -15 -281 -22 -315 -9 -13 5 -16 23 -16 98 0 51 3 96 7 99 3 4
78 7 166 7 156 0 161 -1 194 -26z"/>
<path d="M5467 1893 c-12 -11 -8 -118 5 -131 14 -14 174 -16 252 -3 76 13 101
67 51 116 -23 24 -29 25 -163 25 -76 0 -142 -3 -145 -7z"/>
<path d="M6410 2075 c-120 -24 -220 -81 -239 -136 -28 -82 -4 -157 66 -203 42
-28 177 -65 238 -66 87 -1 278 -29 301 -45 30 -20 32 -65 3 -91 -17 -15 -40
-19 -125 -22 -144 -6 -185 2 -235 44 -40 34 -42 34 -139 34 -136 0 -152 -24
-70 -109 84 -86 201 -116 434 -109 124 4 164 9 220 29 129 43 193 136 165 236
-31 112 -89 138 -383 168 -176 18 -220 28 -240 57 -35 49 32 89 152 90 92 1
151 -14 190 -47 28 -23 37 -25 141 -25 71 0 111 4 111 10 0 44 -73 119 -150
154 -98 45 -302 59 -440 31z"/>
<path d="M6473 1913 c-33 -6 -47 -28 -27 -43 17 -15 290 -48 301 -37 13 14
-35 62 -73 74 -38 11 -156 15 -201 6z"/>
<path d="M7182 2063 c-14 -27 -8 -408 7 -472 15 -59 78 -139 136 -168 89 -47
269 -65 415 -42 145 22 228 69 273 153 21 38 22 56 25 285 3 195 1 246 -10
252 -15 10 -168 12 -192 3 -14 -5 -16 -35 -16 -226 l0 -221 -42 -42 c-54 -53
-119 -70 -217 -55 -68 9 -101 28 -135 74 -19 25 -21 44 -24 244 -3 152 -7 219
-15 224 -7 4 -53 8 -104 8 -78 0 -94 -3 -101 -17z"/>
<path d="M8232 2072 c-9 -7 -12 -83 -10 -348 l3 -339 88 -3 c57 -2 94 1 103 9
11 9 14 51 14 205 0 107 4 194 8 194 7 0 51 -93 139 -295 19 -44 38 -87 42
-95 6 -12 29 -15 106 -15 77 0 100 3 106 15 4 8 27 58 49 110 95 218 130 283
142 268 1 -2 4 -91 7 -198 l6 -195 95 0 95 0 0 345 0 345 -134 3 c-97 2 -137
-1 -149 -10 -8 -7 -28 -42 -44 -78 -39 -86 -126 -276 -146 -319 -10 -19 -21
-32 -27 -30 -11 4 -80 153 -171 368 -30 71 -30 71 -177 71 -73 0 -138 -4 -145
-8z"/>
</g>
</svg>
